<mxfile host="65bd71144e">
    <diagram id="FhiJKlB9s5A7-Ct--Dyu" name="第 1 页">
        <mxGraphModel dx="1597" dy="755" grid="1" gridSize="10" guides="1" tooltips="1" connect="1" arrows="1" fold="1" page="1" pageScale="1" pageWidth="827" pageHeight="1169" math="0" shadow="0">
            <root>
                <mxCell id="0"/>
                <mxCell id="1" parent="0"/>
                <mxCell id="dE-O4AcDyE6aD4Set4XF-321" value="&lt;font style=&quot;color: rgb(252, 234, 255);&quot;&gt;Demux&lt;/font&gt;" style="rounded=1;whiteSpace=wrap;html=1;fillColor=#6a00ff;fontColor=#ffffff;strokeColor=#3700CC;movable=1;resizable=1;rotatable=1;deletable=1;editable=1;locked=0;connectable=1;" parent="1" vertex="1">
                    <mxGeometry x="168" y="303" width="106" height="32" as="geometry"/>
                </mxCell>
                <mxCell id="dE-O4AcDyE6aD4Set4XF-322" value="System" style="rounded=1;whiteSpace=wrap;html=1;fillColor=#f8cecc;strokeColor=#b85450;fontSize=15;fontStyle=1;labelPosition=center;verticalLabelPosition=top;align=center;verticalAlign=bottom;movable=1;resizable=1;rotatable=1;deletable=1;editable=1;locked=0;connectable=1;" parent="1" vertex="1">
                    <mxGeometry x="100" y="60" width="600" height="70" as="geometry"/>
                </mxCell>
                <mxCell id="dE-O4AcDyE6aD4Set4XF-323" value="&lt;b&gt;&lt;font style=&quot;font-size: 15px;&quot;&gt;AudioServer&lt;/font&gt;&lt;/b&gt;" style="rounded=1;whiteSpace=wrap;html=1;strokeWidth=1;fillColor=#60A917;strokeColor=#2D7600;labelPosition=center;verticalLabelPosition=middle;align=center;verticalAlign=middle;movable=1;resizable=1;rotatable=1;deletable=1;editable=1;locked=0;connectable=1;fontColor=#ffffff;" parent="1" vertex="1">
                    <mxGeometry x="337" y="80" width="110" height="36" as="geometry"/>
                </mxCell>
                <mxCell id="dE-O4AcDyE6aD4Set4XF-324" value="Vendor" style="rounded=1;whiteSpace=wrap;html=1;fillColor=#fad7ac;strokeColor=#b46504;fontSize=15;fontStyle=0;labelPosition=center;verticalLabelPosition=top;align=center;verticalAlign=bottom;movable=1;resizable=1;rotatable=1;deletable=1;editable=1;locked=0;connectable=1;" parent="1" vertex="1">
                    <mxGeometry x="100" y="150" width="600" height="130" as="geometry"/>
                </mxCell>
                <mxCell id="dE-O4AcDyE6aD4Set4XF-325" value="" style="edgeStyle=none;html=1;entryX=0.5;entryY=0;entryDx=0;entryDy=0;" parent="1" source="dE-O4AcDyE6aD4Set4XF-326" target="dE-O4AcDyE6aD4Set4XF-328" edge="1">
                    <mxGeometry relative="1" as="geometry"/>
                </mxCell>
                <mxCell id="dE-O4AcDyE6aD4Set4XF-326" value="&lt;span style=&quot;font-size: 15px;&quot;&gt;&lt;b&gt;AudioHal&lt;/b&gt;&lt;/span&gt;" style="rounded=1;whiteSpace=wrap;html=1;strokeWidth=1;fillColor=#60A917;strokeColor=#2D7600;labelPosition=center;verticalLabelPosition=middle;align=center;verticalAlign=middle;movable=1;resizable=1;rotatable=1;deletable=1;editable=1;locked=0;connectable=1;fontColor=#ffffff;" parent="1" vertex="1">
                    <mxGeometry x="337" y="170" width="110" height="30" as="geometry"/>
                </mxCell>
                <mxCell id="dE-O4AcDyE6aD4Set4XF-327" value="" style="edgeStyle=none;html=1;" parent="1" edge="1">
                    <mxGeometry relative="1" as="geometry">
                        <mxPoint x="447" y="243" as="sourcePoint"/>
                        <mxPoint x="490" y="243" as="targetPoint"/>
                    </mxGeometry>
                </mxCell>
                <mxCell id="dE-O4AcDyE6aD4Set4XF-328" value="&lt;font style=&quot;color: rgb(252, 234, 255);&quot;&gt;AudioOutPut&lt;/font&gt;" style="rounded=1;whiteSpace=wrap;html=1;fillColor=#6a00ff;fontColor=#ffffff;strokeColor=#3700CC;movable=1;resizable=1;rotatable=1;deletable=1;editable=1;locked=0;connectable=1;" parent="1" vertex="1">
                    <mxGeometry x="337" y="224" width="110" height="30" as="geometry"/>
                </mxCell>
                <mxCell id="dE-O4AcDyE6aD4Set4XF-329" value="driver" style="rounded=1;whiteSpace=wrap;html=1;fillColor=#d0cee2;strokeColor=#56517e;fontSize=15;fontStyle=0;labelPosition=center;verticalLabelPosition=top;align=center;verticalAlign=bottom;movable=1;resizable=1;rotatable=1;deletable=1;editable=1;locked=0;connectable=1;" parent="1" vertex="1">
                    <mxGeometry x="100" y="290" width="600" height="120" as="geometry"/>
                </mxCell>
                <mxCell id="dE-O4AcDyE6aD4Set4XF-330" value="&lt;font style=&quot;color: rgb(252, 234, 255);&quot;&gt;tinyalsa&lt;/font&gt;" style="rounded=1;whiteSpace=wrap;html=1;fillColor=#6a00ff;fontColor=#ffffff;strokeColor=#3700CC;movable=1;resizable=1;rotatable=1;deletable=1;editable=1;locked=0;connectable=1;" parent="1" vertex="1">
                    <mxGeometry x="337" y="330" width="110" height="30" as="geometry"/>
                </mxCell>
                <mxCell id="dE-O4AcDyE6aD4Set4XF-331" value="" style="edgeStyle=none;html=1;" parent="1" source="dE-O4AcDyE6aD4Set4XF-332" target="dE-O4AcDyE6aD4Set4XF-334" edge="1">
                    <mxGeometry relative="1" as="geometry"/>
                </mxCell>
                <mxCell id="dE-O4AcDyE6aD4Set4XF-332" value="&lt;font style=&quot;color: rgb(252, 234, 255);&quot;&gt;Tuner&lt;/font&gt;" style="rounded=1;whiteSpace=wrap;html=1;fillColor=#6a00ff;fontColor=#ffffff;strokeColor=#3700CC;movable=1;resizable=1;rotatable=1;deletable=1;editable=1;locked=0;connectable=1;" parent="1" vertex="1">
                    <mxGeometry x="171" y="360" width="100" height="32" as="geometry"/>
                </mxCell>
                <mxCell id="dE-O4AcDyE6aD4Set4XF-333" value="" style="edgeStyle=none;html=1;" parent="1" source="dE-O4AcDyE6aD4Set4XF-334" target="dE-O4AcDyE6aD4Set4XF-336" edge="1">
                    <mxGeometry relative="1" as="geometry"/>
                </mxCell>
                <mxCell id="dE-O4AcDyE6aD4Set4XF-334" value="&lt;font style=&quot;color: rgb(252, 234, 255);&quot;&gt;Demux&lt;/font&gt;" style="rounded=1;whiteSpace=wrap;html=1;fillColor=#6a00ff;fontColor=#ffffff;strokeColor=#3700CC;movable=1;resizable=1;rotatable=1;deletable=1;editable=1;locked=0;connectable=1;" parent="1" vertex="1">
                    <mxGeometry x="168" y="303" width="106" height="32" as="geometry"/>
                </mxCell>
                <mxCell id="dE-O4AcDyE6aD4Set4XF-335" value="" style="edgeStyle=none;html=1;" parent="1" source="dE-O4AcDyE6aD4Set4XF-336" target="dE-O4AcDyE6aD4Set4XF-328" edge="1">
                    <mxGeometry relative="1" as="geometry"/>
                </mxCell>
                <mxCell id="dE-O4AcDyE6aD4Set4XF-336" value="&lt;font color=&quot;#fceaff&quot;&gt;DTV&lt;/font&gt;" style="rounded=1;whiteSpace=wrap;html=1;fillColor=#6a00ff;fontColor=#ffffff;strokeColor=#3700CC;movable=1;resizable=1;rotatable=1;deletable=1;editable=1;locked=0;connectable=1;" parent="1" vertex="1">
                    <mxGeometry x="168" y="224" width="106" height="32" as="geometry"/>
                </mxCell>
                <mxCell id="dE-O4AcDyE6aD4Set4XF-337" value="" style="edgeStyle=none;html=1;entryX=0.5;entryY=0;entryDx=0;entryDy=0;" parent="1" source="dE-O4AcDyE6aD4Set4XF-323" target="dE-O4AcDyE6aD4Set4XF-326" edge="1">
                    <mxGeometry relative="1" as="geometry"/>
                </mxCell>
                <mxCell id="dE-O4AcDyE6aD4Set4XF-338" value="" style="edgeStyle=none;html=1;" parent="1" source="dE-O4AcDyE6aD4Set4XF-328" target="dE-O4AcDyE6aD4Set4XF-330" edge="1">
                    <mxGeometry relative="1" as="geometry"/>
                </mxCell>
                <mxCell id="dE-O4AcDyE6aD4Set4XF-339" value="" style="edgeStyle=none;html=1;" parent="1" edge="1">
                    <mxGeometry relative="1" as="geometry">
                        <mxPoint x="490" y="233" as="sourcePoint"/>
                        <mxPoint x="447" y="233" as="targetPoint"/>
                    </mxGeometry>
                </mxCell>
                <mxCell id="dE-O4AcDyE6aD4Set4XF-340" value="&lt;font color=&quot;#fceaff&quot;&gt;Dolby&lt;/font&gt;" style="rounded=1;whiteSpace=wrap;html=1;fillColor=#6a00ff;fontColor=#ffffff;strokeColor=#3700CC;movable=1;resizable=1;rotatable=1;deletable=1;editable=1;locked=0;connectable=1;" parent="1" vertex="1">
                    <mxGeometry x="490" y="224" width="110" height="30" as="geometry"/>
                </mxCell>
            </root>
        </mxGraphModel>
    </diagram>
    <diagram id="fqhCo7Nk5ERTGEGDs873" name="第 2 页">
        <mxGraphModel dx="1597" dy="755" grid="1" gridSize="10" guides="1" tooltips="1" connect="1" arrows="1" fold="1" page="1" pageScale="1" pageWidth="827" pageHeight="1169" math="0" shadow="0">
            <root>
                <mxCell id="0"/>
                <mxCell id="1" parent="0"/>
                <mxCell id="oQcGyivkDFkuSOEvOsVF-1" value="" style="group" parent="1" vertex="1" connectable="0">
                    <mxGeometry x="30" y="40" width="1040" height="646" as="geometry"/>
                </mxCell>
                <mxCell id="oQcGyivkDFkuSOEvOsVF-2" value="&lt;div&gt;&lt;span style=&quot;background-color: transparent;&quot;&gt;&lt;b&gt;&lt;font style=&quot;font-size: 15px;&quot;&gt;Framework&lt;/font&gt;&lt;/b&gt;&lt;/span&gt;&lt;/div&gt;" style="rounded=1;whiteSpace=wrap;html=1;horizontal=1;fillColor=#dae8fc;strokeColor=#6c8ebf;labelPosition=center;verticalLabelPosition=top;align=center;verticalAlign=bottom;dashed=1;movable=1;resizable=1;rotatable=1;deletable=1;editable=1;locked=0;connectable=1;" parent="oQcGyivkDFkuSOEvOsVF-1" vertex="1">
                    <mxGeometry x="5" y="84" width="1035" height="260" as="geometry"/>
                </mxCell>
                <mxCell id="oQcGyivkDFkuSOEvOsVF-3" value="Native" style="rounded=1;whiteSpace=wrap;html=1;fillColor=#f8cecc;strokeColor=#b85450;fontSize=15;fontStyle=1;labelPosition=center;verticalLabelPosition=top;align=center;verticalAlign=bottom;movable=1;resizable=1;rotatable=1;deletable=1;editable=1;locked=0;connectable=1;" parent="oQcGyivkDFkuSOEvOsVF-1" vertex="1">
                    <mxGeometry x="197" y="364" width="843" height="170" as="geometry"/>
                </mxCell>
                <mxCell id="oQcGyivkDFkuSOEvOsVF-4" value="App" style="rounded=1;whiteSpace=wrap;html=1;fillColor=#fff2cc;strokeColor=#d6b656;movable=1;resizable=1;rotatable=1;deletable=1;editable=1;locked=0;connectable=1;" parent="oQcGyivkDFkuSOEvOsVF-1" vertex="1">
                    <mxGeometry x="200" width="840" height="60" as="geometry"/>
                </mxCell>
                <mxCell id="oQcGyivkDFkuSOEvOsVF-5" value="" style="edgeStyle=none;html=1;movable=1;resizable=1;rotatable=1;deletable=1;editable=1;locked=0;connectable=1;" parent="oQcGyivkDFkuSOEvOsVF-1" source="oQcGyivkDFkuSOEvOsVF-17" target="oQcGyivkDFkuSOEvOsVF-22" edge="1">
                    <mxGeometry relative="1" as="geometry"/>
                </mxCell>
                <mxCell id="oQcGyivkDFkuSOEvOsVF-6" style="edgeStyle=none;html=1;entryX=0.5;entryY=0;entryDx=0;entryDy=0;movable=1;resizable=1;rotatable=1;deletable=1;editable=1;locked=0;connectable=1;" parent="oQcGyivkDFkuSOEvOsVF-1" source="oQcGyivkDFkuSOEvOsVF-7" target="oQcGyivkDFkuSOEvOsVF-14" edge="1">
                    <mxGeometry relative="1" as="geometry">
                        <mxPoint x="310" y="94" as="targetPoint"/>
                    </mxGeometry>
                </mxCell>
                <mxCell id="oQcGyivkDFkuSOEvOsVF-7" value="APP1" style="rounded=1;whiteSpace=wrap;html=1;flipH=1;movable=1;resizable=1;rotatable=1;deletable=1;editable=1;locked=0;connectable=1;" parent="oQcGyivkDFkuSOEvOsVF-1" vertex="1">
                    <mxGeometry x="251" y="17" width="100" height="35" as="geometry"/>
                </mxCell>
                <mxCell id="oQcGyivkDFkuSOEvOsVF-8" value="APP2" style="rounded=1;whiteSpace=wrap;html=1;flipH=1;movable=1;resizable=1;rotatable=1;deletable=1;editable=1;locked=0;connectable=1;" parent="oQcGyivkDFkuSOEvOsVF-1" vertex="1">
                    <mxGeometry x="560" y="17" width="100" height="35" as="geometry"/>
                </mxCell>
                <mxCell id="oQcGyivkDFkuSOEvOsVF-9" value="&lt;b&gt;&lt;font style=&quot;font-size: 15px;&quot;&gt;CarAudioSever&lt;/font&gt;&lt;/b&gt;&lt;div&gt;&lt;b&gt;&lt;font style=&quot;font-size: 15px;&quot;&gt;&lt;br&gt;&lt;/font&gt;&lt;/b&gt;&lt;/div&gt;&lt;div&gt;&lt;b&gt;&lt;font style=&quot;font-size: 15px;&quot;&gt;&lt;br&gt;&lt;/font&gt;&lt;/b&gt;&lt;/div&gt;&lt;div&gt;&lt;font style=&quot;font-size: 15px;&quot;&gt;&lt;br&gt;&lt;/font&gt;&lt;/div&gt;&lt;div&gt;&lt;font style=&quot;font-size: 15px;&quot;&gt;&lt;br&gt;&lt;/font&gt;&lt;/div&gt;&lt;div&gt;&lt;font style=&quot;font-size: 15px;&quot;&gt;&lt;br&gt;&lt;/font&gt;&lt;/div&gt;&lt;div&gt;&lt;font style=&quot;font-size: 15px;&quot;&gt;&lt;br&gt;&lt;/font&gt;&lt;/div&gt;&lt;div&gt;&lt;font style=&quot;font-size: 15px;&quot;&gt;&lt;br&gt;&lt;/font&gt;&lt;/div&gt;&lt;div&gt;&lt;br&gt;&lt;/div&gt;" style="rounded=1;whiteSpace=wrap;html=1;shadow=0;strokeWidth=3;dashed=1;fillColor=#fad7ac;strokeColor=#b46504;movable=1;resizable=1;rotatable=1;deletable=1;editable=1;locked=0;connectable=1;" parent="oQcGyivkDFkuSOEvOsVF-1" vertex="1">
                    <mxGeometry y="114" width="170" height="100" as="geometry"/>
                </mxCell>
                <mxCell id="oQcGyivkDFkuSOEvOsVF-10" value="" style="edgeStyle=none;html=1;movable=1;resizable=1;rotatable=1;deletable=1;editable=1;locked=0;connectable=1;" parent="oQcGyivkDFkuSOEvOsVF-1" source="oQcGyivkDFkuSOEvOsVF-22" target="oQcGyivkDFkuSOEvOsVF-24" edge="1">
                    <mxGeometry relative="1" as="geometry"/>
                </mxCell>
                <mxCell id="oQcGyivkDFkuSOEvOsVF-11" value="" style="edgeStyle=none;html=1;movable=1;resizable=1;rotatable=1;deletable=1;editable=1;locked=0;connectable=1;" parent="oQcGyivkDFkuSOEvOsVF-1" source="oQcGyivkDFkuSOEvOsVF-26" target="oQcGyivkDFkuSOEvOsVF-27" edge="1">
                    <mxGeometry relative="1" as="geometry"/>
                </mxCell>
                <mxCell id="oQcGyivkDFkuSOEvOsVF-12" value="" style="edgeStyle=none;html=1;movable=1;resizable=1;rotatable=1;deletable=1;editable=1;locked=0;connectable=1;" parent="oQcGyivkDFkuSOEvOsVF-1" source="oQcGyivkDFkuSOEvOsVF-24" target="oQcGyivkDFkuSOEvOsVF-26" edge="1">
                    <mxGeometry relative="1" as="geometry"/>
                </mxCell>
                <mxCell id="oQcGyivkDFkuSOEvOsVF-13" value="&lt;b&gt;&lt;font style=&quot;font-size: 15px;&quot;&gt;AudioServer&lt;/font&gt;&lt;/b&gt;" style="rounded=1;whiteSpace=wrap;html=1;strokeWidth=3;dashed=1;dashPattern=8 8;fillColor=#fad7ac;strokeColor=#b46504;labelPosition=center;verticalLabelPosition=top;align=center;verticalAlign=bottom;movable=1;resizable=1;rotatable=1;deletable=1;editable=1;locked=0;connectable=1;" parent="oQcGyivkDFkuSOEvOsVF-1" vertex="1">
                    <mxGeometry x="196" y="114" width="814" height="220" as="geometry"/>
                </mxCell>
                <mxCell id="oQcGyivkDFkuSOEvOsVF-14" value="AudiManager" style="rounded=1;whiteSpace=wrap;html=1;fillColor=#60a917;fontColor=#ffffff;strokeColor=#2D7600;movable=1;resizable=1;rotatable=1;deletable=1;editable=1;locked=0;connectable=1;" parent="oQcGyivkDFkuSOEvOsVF-1" vertex="1">
                    <mxGeometry x="254.63" y="136.67000000000002" width="90" height="35" as="geometry"/>
                </mxCell>
                <mxCell id="oQcGyivkDFkuSOEvOsVF-15" value="AudioServer" style="rounded=1;whiteSpace=wrap;html=1;fillColor=#60a917;fontColor=#ffffff;strokeColor=#2D7600;movable=1;resizable=1;rotatable=1;deletable=1;editable=1;locked=0;connectable=1;" parent="oQcGyivkDFkuSOEvOsVF-1" vertex="1">
                    <mxGeometry x="435.2" y="136.67000000000002" width="90" height="35" as="geometry"/>
                </mxCell>
                <mxCell id="oQcGyivkDFkuSOEvOsVF-16" value="" style="edgeStyle=none;html=1;movable=1;resizable=1;rotatable=1;deletable=1;editable=1;locked=0;connectable=1;" parent="oQcGyivkDFkuSOEvOsVF-1" source="oQcGyivkDFkuSOEvOsVF-17" target="oQcGyivkDFkuSOEvOsVF-22" edge="1">
                    <mxGeometry relative="1" as="geometry"/>
                </mxCell>
                <mxCell id="oQcGyivkDFkuSOEvOsVF-17" value="MeidaFocusControl" style="rounded=1;whiteSpace=wrap;html=1;fillColor=#60a917;fontColor=#ffffff;strokeColor=#2D7600;movable=1;resizable=1;rotatable=1;deletable=1;editable=1;locked=0;connectable=1;" parent="oQcGyivkDFkuSOEvOsVF-1" vertex="1">
                    <mxGeometry x="560" y="136.67000000000002" width="130" height="35" as="geometry"/>
                </mxCell>
                <mxCell id="oQcGyivkDFkuSOEvOsVF-18" value="" style="edgeStyle=none;html=1;movable=1;resizable=1;rotatable=1;deletable=1;editable=1;locked=0;connectable=1;" parent="oQcGyivkDFkuSOEvOsVF-1" source="oQcGyivkDFkuSOEvOsVF-14" target="oQcGyivkDFkuSOEvOsVF-15" edge="1">
                    <mxGeometry relative="1" as="geometry"/>
                </mxCell>
                <mxCell id="oQcGyivkDFkuSOEvOsVF-19" value="" style="edgeStyle=none;html=1;movable=1;resizable=1;rotatable=1;deletable=1;editable=1;locked=0;connectable=1;" parent="oQcGyivkDFkuSOEvOsVF-1" source="oQcGyivkDFkuSOEvOsVF-15" target="oQcGyivkDFkuSOEvOsVF-17" edge="1">
                    <mxGeometry relative="1" as="geometry"/>
                </mxCell>
                <mxCell id="oQcGyivkDFkuSOEvOsVF-20" value="" style="edgeStyle=none;html=1;movable=1;resizable=1;rotatable=1;deletable=1;editable=1;locked=0;connectable=1;" parent="oQcGyivkDFkuSOEvOsVF-1" source="oQcGyivkDFkuSOEvOsVF-22" target="oQcGyivkDFkuSOEvOsVF-34" edge="1">
                    <mxGeometry relative="1" as="geometry"/>
                </mxCell>
                <mxCell id="oQcGyivkDFkuSOEvOsVF-21" value="" style="edgeStyle=none;html=1;movable=1;resizable=1;rotatable=1;deletable=1;editable=1;locked=0;connectable=1;" parent="oQcGyivkDFkuSOEvOsVF-1" source="oQcGyivkDFkuSOEvOsVF-22" target="oQcGyivkDFkuSOEvOsVF-24" edge="1">
                    <mxGeometry relative="1" as="geometry"/>
                </mxCell>
                <mxCell id="oQcGyivkDFkuSOEvOsVF-22" value="AudioPolicy" style="rounded=1;whiteSpace=wrap;html=1;fillColor=#60a917;fontColor=#ffffff;strokeColor=#2D7600;movable=1;resizable=1;rotatable=1;deletable=1;editable=1;locked=0;connectable=1;" parent="oQcGyivkDFkuSOEvOsVF-1" vertex="1">
                    <mxGeometry x="580" y="214" width="90" height="35" as="geometry"/>
                </mxCell>
                <mxCell id="oQcGyivkDFkuSOEvOsVF-23" value="" style="edgeStyle=none;html=1;movable=1;resizable=1;rotatable=1;deletable=1;editable=1;locked=0;connectable=1;" parent="oQcGyivkDFkuSOEvOsVF-1" source="oQcGyivkDFkuSOEvOsVF-24" target="oQcGyivkDFkuSOEvOsVF-26" edge="1">
                    <mxGeometry relative="1" as="geometry"/>
                </mxCell>
                <mxCell id="oQcGyivkDFkuSOEvOsVF-24" value="CarZonesAudioFocus" style="rounded=1;whiteSpace=wrap;html=1;fillColor=#60a917;fontColor=#ffffff;strokeColor=#2D7600;movable=1;resizable=1;rotatable=1;deletable=1;editable=1;locked=0;connectable=1;" parent="oQcGyivkDFkuSOEvOsVF-1" vertex="1">
                    <mxGeometry x="410.2" y="214" width="140" height="35" as="geometry"/>
                </mxCell>
                <mxCell id="oQcGyivkDFkuSOEvOsVF-25" value="" style="edgeStyle=none;html=1;movable=1;resizable=1;rotatable=1;deletable=1;editable=1;locked=0;connectable=1;" parent="oQcGyivkDFkuSOEvOsVF-1" source="oQcGyivkDFkuSOEvOsVF-26" target="oQcGyivkDFkuSOEvOsVF-27" edge="1">
                    <mxGeometry relative="1" as="geometry"/>
                </mxCell>
                <mxCell id="oQcGyivkDFkuSOEvOsVF-26" value="CarAudioFocus" style="rounded=1;whiteSpace=wrap;html=1;fillColor=#60a917;fontColor=#ffffff;strokeColor=#2D7600;movable=1;resizable=1;rotatable=1;deletable=1;editable=1;locked=0;connectable=1;" parent="oQcGyivkDFkuSOEvOsVF-1" vertex="1">
                    <mxGeometry x="246" y="214" width="110" height="35" as="geometry"/>
                </mxCell>
                <mxCell id="oQcGyivkDFkuSOEvOsVF-27" value="FocusInteraction" style="rounded=1;whiteSpace=wrap;html=1;fillColor=#60a917;fontColor=#ffffff;strokeColor=#2D7600;arcSize=0;movable=1;resizable=1;rotatable=1;deletable=1;editable=1;locked=0;connectable=1;" parent="oQcGyivkDFkuSOEvOsVF-1" vertex="1">
                    <mxGeometry x="246" y="277.67" width="110" height="35" as="geometry"/>
                </mxCell>
                <mxCell id="oQcGyivkDFkuSOEvOsVF-28" value="" style="edgeStyle=none;html=1;dashed=1;strokeWidth=2;entryX=0;entryY=0.5;entryDx=0;entryDy=0;exitX=1;exitY=0.5;exitDx=0;exitDy=0;movable=1;resizable=1;rotatable=1;deletable=1;editable=1;locked=0;connectable=1;" parent="oQcGyivkDFkuSOEvOsVF-1" source="oQcGyivkDFkuSOEvOsVF-29" target="oQcGyivkDFkuSOEvOsVF-14" edge="1">
                    <mxGeometry relative="1" as="geometry">
                        <mxPoint x="140" y="158" as="sourcePoint"/>
                        <mxPoint x="229.6300000000001" y="158" as="targetPoint"/>
                    </mxGeometry>
                </mxCell>
                <mxCell id="oQcGyivkDFkuSOEvOsVF-29" value="CarAudioService" style="rounded=1;whiteSpace=wrap;html=1;fillColor=#60a917;fontColor=#ffffff;strokeColor=#2D7600;aspect=fixed;movable=1;resizable=1;rotatable=1;deletable=1;editable=1;locked=0;connectable=1;" parent="oQcGyivkDFkuSOEvOsVF-1" vertex="1">
                    <mxGeometry x="40" y="149.32999999999998" width="90" height="22.34" as="geometry"/>
                </mxCell>
                <mxCell id="oQcGyivkDFkuSOEvOsVF-30" value="&lt;font style=&quot;font-size: 15px;&quot;&gt;&lt;b&gt;Gxa_CarAudioServer&lt;/b&gt;&lt;/font&gt;" style="rounded=1;whiteSpace=wrap;html=1;labelPosition=center;verticalLabelPosition=top;align=center;verticalAlign=bottom;fillColor=#fad7ac;strokeColor=#b46504;dashed=1;dashPattern=12 12;movable=1;resizable=1;rotatable=1;deletable=1;editable=1;locked=0;connectable=1;" parent="oQcGyivkDFkuSOEvOsVF-1" vertex="1">
                    <mxGeometry y="249" width="170" height="100" as="geometry"/>
                </mxCell>
                <mxCell id="oQcGyivkDFkuSOEvOsVF-31" value="" style="edgeStyle=none;html=1;entryX=0;entryY=0.5;entryDx=0;entryDy=0;dashed=1;dashPattern=8 8;movable=1;resizable=1;rotatable=1;deletable=1;editable=1;locked=0;connectable=1;" parent="oQcGyivkDFkuSOEvOsVF-1" source="oQcGyivkDFkuSOEvOsVF-32" target="oQcGyivkDFkuSOEvOsVF-14" edge="1">
                    <mxGeometry relative="1" as="geometry"/>
                </mxCell>
                <mxCell id="oQcGyivkDFkuSOEvOsVF-32" value="CarAudioService" style="rounded=1;whiteSpace=wrap;html=1;fillColor=#6a00ff;strokeColor=#3700CC;aspect=fixed;fontColor=#ffffff;movable=1;resizable=1;rotatable=1;deletable=1;editable=1;locked=0;connectable=1;" parent="oQcGyivkDFkuSOEvOsVF-1" vertex="1">
                    <mxGeometry x="50" y="284" width="90" height="22.34" as="geometry"/>
                </mxCell>
                <mxCell id="oQcGyivkDFkuSOEvOsVF-33" value="" style="edgeStyle=none;html=1;exitX=1;exitY=0.5;exitDx=0;exitDy=0;movable=1;resizable=1;rotatable=1;deletable=1;editable=1;locked=0;connectable=1;" parent="oQcGyivkDFkuSOEvOsVF-1" source="oQcGyivkDFkuSOEvOsVF-34" edge="1">
                    <mxGeometry relative="1" as="geometry">
                        <mxPoint x="910" y="231.08" as="sourcePoint"/>
                        <mxPoint x="970" y="231.08" as="targetPoint"/>
                    </mxGeometry>
                </mxCell>
                <mxCell id="oQcGyivkDFkuSOEvOsVF-34" value="CarAudioService" style="rounded=1;whiteSpace=wrap;html=1;fillColor=#6a00ff;fontColor=#ffffff;strokeColor=#3700CC;movable=1;resizable=1;rotatable=1;deletable=1;editable=1;locked=0;connectable=1;" parent="oQcGyivkDFkuSOEvOsVF-1" vertex="1">
                    <mxGeometry x="727" y="214" width="90" height="35" as="geometry"/>
                </mxCell>
                <mxCell id="oQcGyivkDFkuSOEvOsVF-35" value="&lt;span style=&quot;color: rgb(255, 255, 255);&quot;&gt;CarAudioManager&lt;/span&gt;" style="rounded=1;whiteSpace=wrap;html=1;fillColor=#6a00ff;fontColor=#ffffff;strokeColor=#3700CC;movable=1;resizable=1;rotatable=1;deletable=1;editable=1;locked=0;connectable=1;" parent="oQcGyivkDFkuSOEvOsVF-1" vertex="1">
                    <mxGeometry x="887" y="214" width="100" height="35" as="geometry"/>
                </mxCell>
                <mxCell id="oQcGyivkDFkuSOEvOsVF-36" value="&lt;div&gt;&lt;div style=&quot;color: rgb(240, 243, 246); line-height: 19px; white-space: pre;&quot;&gt;&lt;span style=&quot;color: rgb(173, 220, 255);&quot;&gt;&lt;font face=&quot;Helvetica&quot;&gt;car.audio&lt;/font&gt;&lt;/span&gt;&lt;/div&gt;&lt;/div&gt;" style="rounded=1;whiteSpace=wrap;html=1;shadow=0;strokeWidth=3;dashed=1;fillColor=#fad7ac;strokeColor=#b46504;fontSize=15;labelPosition=center;verticalLabelPosition=top;align=center;verticalAlign=bottom;fontStyle=1;movable=1;resizable=1;rotatable=1;deletable=1;editable=1;locked=0;connectable=1;" parent="oQcGyivkDFkuSOEvOsVF-1" vertex="1">
                    <mxGeometry x="710" y="375" width="300" height="130" as="geometry"/>
                </mxCell>
                <mxCell id="oQcGyivkDFkuSOEvOsVF-37" value="" style="edgeStyle=none;html=1;movable=1;resizable=1;rotatable=1;deletable=1;editable=1;locked=0;connectable=1;" parent="oQcGyivkDFkuSOEvOsVF-1" source="oQcGyivkDFkuSOEvOsVF-38" target="oQcGyivkDFkuSOEvOsVF-43" edge="1">
                    <mxGeometry relative="1" as="geometry"/>
                </mxCell>
                <mxCell id="oQcGyivkDFkuSOEvOsVF-38" value="&lt;span style=&quot;color: rgb(255, 255, 255);&quot;&gt;CarAudioService&lt;/span&gt;" style="rounded=1;whiteSpace=wrap;html=1;fillColor=#6a00ff;fontColor=#ffffff;strokeColor=#3700CC;movable=1;resizable=1;rotatable=1;deletable=1;editable=1;locked=0;connectable=1;" parent="oQcGyivkDFkuSOEvOsVF-1" vertex="1">
                    <mxGeometry x="887" y="385" width="100" height="35" as="geometry"/>
                </mxCell>
                <mxCell id="oQcGyivkDFkuSOEvOsVF-39" value="&lt;span style=&quot;color: rgb(255, 255, 255);&quot;&gt;AudioZoneFocusControl&lt;/span&gt;" style="rounded=1;whiteSpace=wrap;html=1;fillColor=#6a00ff;fontColor=#ffffff;strokeColor=#3700CC;movable=1;resizable=1;rotatable=1;deletable=1;editable=1;locked=0;connectable=1;" parent="oQcGyivkDFkuSOEvOsVF-1" vertex="1">
                    <mxGeometry x="730" y="385" width="140" height="35" as="geometry"/>
                </mxCell>
                <mxCell id="oQcGyivkDFkuSOEvOsVF-40" value="" style="edgeStyle=none;html=1;movable=1;resizable=1;rotatable=1;deletable=1;editable=1;locked=0;connectable=1;" parent="oQcGyivkDFkuSOEvOsVF-1" source="oQcGyivkDFkuSOEvOsVF-41" target="oQcGyivkDFkuSOEvOsVF-39" edge="1">
                    <mxGeometry relative="1" as="geometry"/>
                </mxCell>
                <mxCell id="oQcGyivkDFkuSOEvOsVF-41" value="&lt;span style=&quot;color: rgb(255, 255, 255);&quot;&gt;AudioFocusControl&lt;/span&gt;" style="rounded=1;whiteSpace=wrap;html=1;fillColor=#6a00ff;fontColor=#ffffff;strokeColor=#3700CC;movable=1;resizable=1;rotatable=1;deletable=1;editable=1;locked=0;connectable=1;" parent="oQcGyivkDFkuSOEvOsVF-1" vertex="1">
                    <mxGeometry x="745" y="455" width="110" height="35" as="geometry"/>
                </mxCell>
                <mxCell id="oQcGyivkDFkuSOEvOsVF-42" value="" style="edgeStyle=none;html=1;movable=1;resizable=1;rotatable=1;deletable=1;editable=1;locked=0;connectable=1;" parent="oQcGyivkDFkuSOEvOsVF-1" source="oQcGyivkDFkuSOEvOsVF-43" target="oQcGyivkDFkuSOEvOsVF-41" edge="1">
                    <mxGeometry relative="1" as="geometry"/>
                </mxCell>
                <mxCell id="oQcGyivkDFkuSOEvOsVF-43" value="&lt;span style=&quot;color: rgb(255, 255, 255);&quot;&gt;ArbitrationEngine&lt;/span&gt;" style="rounded=1;whiteSpace=wrap;html=1;fillColor=#6a00ff;fontColor=#ffffff;strokeColor=#3700CC;movable=1;resizable=1;rotatable=1;deletable=1;editable=1;locked=0;connectable=1;" parent="oQcGyivkDFkuSOEvOsVF-1" vertex="1">
                    <mxGeometry x="887" y="455" width="100" height="35" as="geometry"/>
                </mxCell>
                <mxCell id="oQcGyivkDFkuSOEvOsVF-44" value="" style="endArrow=classic;html=1;exitX=0.5;exitY=1;exitDx=0;exitDy=0;entryX=0.5;entryY=0;entryDx=0;entryDy=0;movable=1;resizable=1;rotatable=1;deletable=1;editable=1;locked=0;connectable=1;" parent="oQcGyivkDFkuSOEvOsVF-1" source="oQcGyivkDFkuSOEvOsVF-35" target="oQcGyivkDFkuSOEvOsVF-38" edge="1">
                    <mxGeometry width="50" height="50" relative="1" as="geometry">
                        <mxPoint x="960" y="414" as="sourcePoint"/>
                        <mxPoint x="1010" y="364" as="targetPoint"/>
                    </mxGeometry>
                </mxCell>
                <mxCell id="oQcGyivkDFkuSOEvOsVF-45" value="自研" style="rounded=1;whiteSpace=wrap;html=1;fillColor=#6a00ff;fontColor=#ffffff;strokeColor=#3700CC;movable=1;resizable=1;rotatable=1;deletable=1;editable=1;locked=0;connectable=1;" parent="oQcGyivkDFkuSOEvOsVF-1" vertex="1">
                    <mxGeometry x="727" y="554" width="90" height="35" as="geometry"/>
                </mxCell>
                <mxCell id="oQcGyivkDFkuSOEvOsVF-46" value="" style="endArrow=classic;html=1;exitX=0.5;exitY=1;exitDx=0;exitDy=0;movable=1;resizable=1;rotatable=1;deletable=1;editable=1;locked=0;connectable=1;" parent="oQcGyivkDFkuSOEvOsVF-1" edge="1">
                    <mxGeometry width="50" height="50" relative="1" as="geometry">
                        <mxPoint x="840" y="574" as="sourcePoint"/>
                        <mxPoint x="950" y="574" as="targetPoint"/>
                    </mxGeometry>
                </mxCell>
                <mxCell id="oQcGyivkDFkuSOEvOsVF-47" value="调用" style="edgeLabel;html=1;align=center;verticalAlign=middle;resizable=1;points=[];movable=1;rotatable=1;deletable=1;editable=1;locked=0;connectable=1;" parent="oQcGyivkDFkuSOEvOsVF-46" vertex="1" connectable="0">
                    <mxGeometry x="-0.0816" y="-2" relative="1" as="geometry">
                        <mxPoint as="offset"/>
                    </mxGeometry>
                </mxCell>
                <mxCell id="oQcGyivkDFkuSOEvOsVF-48" value="" style="endArrow=classic;html=1;exitX=0.5;exitY=1;exitDx=0;exitDy=0;movable=1;resizable=1;rotatable=1;deletable=1;editable=1;locked=0;connectable=1;" parent="oQcGyivkDFkuSOEvOsVF-1" target="oQcGyivkDFkuSOEvOsVF-49" edge="1">
                    <mxGeometry width="50" height="50" relative="1" as="geometry">
                        <mxPoint x="780" y="614" as="sourcePoint"/>
                        <mxPoint x="870" y="614" as="targetPoint"/>
                    </mxGeometry>
                </mxCell>
                <mxCell id="oQcGyivkDFkuSOEvOsVF-49" value="AOSP" style="rounded=1;whiteSpace=wrap;html=1;fillColor=#60a917;fontColor=#ffffff;strokeColor=#2D7600;movable=1;resizable=1;rotatable=1;deletable=1;editable=1;locked=0;connectable=1;" parent="oQcGyivkDFkuSOEvOsVF-1" vertex="1">
                    <mxGeometry x="725.5" y="611" width="93" height="35" as="geometry"/>
                </mxCell>
                <mxCell id="oQcGyivkDFkuSOEvOsVF-50" value="" style="endArrow=classic;html=1;exitX=0.5;exitY=1;exitDx=0;exitDy=0;dashed=1;movable=1;resizable=1;rotatable=1;deletable=1;editable=1;locked=0;connectable=1;" parent="oQcGyivkDFkuSOEvOsVF-1" edge="1">
                    <mxGeometry width="50" height="50" relative="1" as="geometry">
                        <mxPoint x="840" y="629" as="sourcePoint"/>
                        <mxPoint x="950" y="629" as="targetPoint"/>
                    </mxGeometry>
                </mxCell>
                <mxCell id="oQcGyivkDFkuSOEvOsVF-51" value="注册" style="edgeLabel;html=1;align=center;verticalAlign=middle;resizable=1;points=[];movable=1;rotatable=1;deletable=1;editable=1;locked=0;connectable=1;" parent="oQcGyivkDFkuSOEvOsVF-50" vertex="1" connectable="0">
                    <mxGeometry x="-0.0816" y="-2" relative="1" as="geometry">
                        <mxPoint as="offset"/>
                    </mxGeometry>
                </mxCell>
                <mxCell id="oQcGyivkDFkuSOEvOsVF-52" value="&lt;font style=&quot;font-size: 15px;&quot;&gt;App&lt;/font&gt;" style="rounded=1;whiteSpace=wrap;html=1;fillColor=#fff2cc;strokeColor=#d6b656;movable=1;resizable=1;rotatable=1;deletable=1;editable=1;locked=0;connectable=1;labelPosition=center;verticalLabelPosition=top;align=center;verticalAlign=bottom;" parent="1" vertex="1">
                    <mxGeometry x="250" y="620" width="590" height="60" as="geometry"/>
                </mxCell>
            </root>
        </mxGraphModel>
    </diagram>
</mxfile>